# xmcd
#
# Track frame offsets: 
#        190
#        17327
#        37680
#        61362
#        88267
#        113407
#        129020
#        153595
#        173495
#        194252
#
# Disc length: 3083 seconds
#
# Revision: 2
# Processed by: cddbd v1.5.2PL0 Copyright (c) Steve Scherf et al.
# Submitted via: ExactAudioCopy v0.95b4
#
DISCID=680c090a
DTITLE=Duke Levine - Nobody's Home
DYEAR=1992
DGENRE=Blues
TTITLE0=Attack of the Mutant Guitars
TTITLE1=Longhorn
TTITLE2=King Kamehameha Blues
TTITLE3=Stop, Do Not Go On
TTITLE4=When I Go Walkin'
TTITLE5=Remington Ride
TTITLE6=Swamp Thing
TTITLE7=Vigilante Man
TTITLE8=Shacklehands
TTITLE9=Nobody's Home
EXTD=YEAR: 1992 ID3G: 0
EXTT0=
EXTT1=
EXTT2=
EXTT3=
EXTT4=
EXTT5=
EXTT6=
EXTT7=
EXTT8=
EXTT9=
PLAYORDER=
